<?xml version="1.0" standalone="no"?>
<!DOCTYPE svg PUBLIC "-//W3C//DTD SVG 20010904//EN"
 "http://www.w3.org/TR/2001/REC-SVG-20010904/DTD/svg10.dtd">
<svg version="1.0" xmlns="http://www.w3.org/2000/svg"
 width="600.000000pt" height="600.000000pt" viewBox="0 0 600.000000 600.000000"
 preserveAspectRatio="xMidYMid meet">

<g transform="translate(0.000000,600.000000) scale(0.100000,-0.100000)"
fill="#000000" stroke="none">
<path d="M2725 5979 c-800 -77 -1535 -469 -2047 -1094 -400 -488 -638 -1114
-667 -1750 -30 -671 168 -1340 555 -1877 257 -357 587 -653 971 -871 175 -100
429 -206 636 -267 372 -108 835 -142 1223 -90 539 73 1054 294 1484 636 115
92 360 337 453 454 397 499 617 1072 657 1708 32 507 -77 1034 -308 1499 -431
865 -1238 1462 -2190 1622 -235 40 -539 51 -767 30z m525 -60 c378 -34 696
-121 1031 -283 554 -267 1021 -716 1307 -1256 236 -445 344 -882 344 -1385 0
-266 -29 -504 -92 -740 -212 -802 -740 -1465 -1480 -1858 -323 -171 -705 -284
-1075 -318 -183 -17 -589 -6 -745 21 -766 129 -1414 520 -1879 1130 -270 355
-464 790 -541 1215 -77 420 -64 888 35 1270 60 230 157 480 253 655 26 47 49
90 51 95 9 23 154 239 202 302 462 604 1127 1005 1859 1123 243 39 506 50 730
29z"/>
<path d="M2747 5739 c-1248 -120 -2253 -1056 -2462 -2292 -40 -241 -45 -613
-10 -837 96 -618 355 -1134 784 -1560 557 -554 1297 -837 2085 -799 519 26
1014 195 1436 492 559 394 958 986 1104 1639 35 156 55 291 62 418 3 58 7 122
8 144 6 68 -12 348 -29 456 -113 746 -513 1397 -1130 1841 -315 226 -703 391
-1095 464 -219 41 -533 55 -753 34z m-1370 -1160 c15 -6 94 -11 174 -12 l146
-2 60 -37 c67 -42 128 -59 162 -46 18 6 30 3 52 -16 16 -13 43 -27 61 -31 44
-10 58 -22 58 -52 0 -21 3 -22 20 -13 35 19 73 -2 165 -90 49 -48 98 -92 109
-97 15 -8 38 -2 106 28 120 52 179 68 290 79 109 12 197 34 223 58 13 12 17
25 13 44 -7 35 -3 35 114 -2 52 -16 104 -30 115 -30 40 -1 104 -39 174 -104
84 -76 124 -92 184 -71 35 12 43 12 64 -2 24 -16 28 -15 99 21 83 43 88 43
220 4 111 -34 202 -78 316 -154 l97 -64 223 2 c189 2 232 0 281 -15 54 -17 57
-19 57 -50 0 -38 -50 -146 -139 -297 -33 -58 -61 -112 -61 -120 0 -9 20 -36
45 -60 25 -24 45 -52 45 -62 0 -9 -20 -40 -45 -68 -41 -46 -45 -55 -45 -103 1
-34 9 -69 25 -102 l24 -50 -29 -26 c-15 -15 -34 -45 -41 -67 -10 -35 -9 -48 5
-87 12 -29 18 -78 19 -139 2 -90 1 -96 -26 -123 -34 -36 -34 -53 -1 -93 15
-17 24 -33 21 -37 -4 -3 -35 2 -71 11 -81 20 -116 11 -116 -32 0 -26 22 -69
44 -84 5 -4 -3 -12 -20 -19 -85 -37 -105 -76 -59 -114 26 -21 62 -95 46 -95
-6 0 -15 8 -20 18 -9 14 -12 15 -20 3 -5 -8 -14 -10 -21 -6 -10 6 -11 1 -6
-19 6 -24 4 -26 -11 -17 -10 5 -29 21 -42 35 -29 31 -47 33 -61 7 -6 -13 -17
-17 -30 -14 -26 7 -25 -1 2 -37 23 -32 19 -45 -17 -52 -18 -3 -17 -7 13 -37
17 -18 32 -34 32 -36 0 -1 -42 -5 -92 -7 -110 -6 -148 -21 -294 -113 -68 -44
-118 -85 -155 -127 -30 -35 -93 -103 -141 -153 -113 -118 -159 -178 -155 -207
2 -20 -3 -23 -35 -26 -33 -3 -39 -7 -46 -35 -19 -73 -114 -88 -552 -88 -407 0
-485 10 -589 75 -22 14 -49 26 -58 26 -84 0 -162 65 -243 200 -72 121 -146
201 -231 251 -38 22 -77 51 -86 65 -10 15 -34 45 -54 68 -20 22 -57 84 -83
136 -30 63 -71 125 -121 185 -173 206 -212 269 -222 359 -7 62 -22 94 -79 168
-48 61 -78 123 -69 138 4 6 -2 10 -13 10 -29 0 -31 8 -14 52 15 38 15 42 -6
82 -26 49 -25 55 53 220 25 54 55 130 65 170 10 39 30 103 44 141 35 99 48
209 36 298 -6 39 -13 79 -16 89 -4 13 2 16 32 15 68 -2 79 52 45 211 -23 106
-36 334 -21 362 12 22 35 25 77 9z"/>
<path d="M1403 4481 c-38 -17 -46 -46 -40 -155 4 -81 15 -138 57 -286 29 -102
54 -215 57 -252 3 -38 9 -68 14 -68 4 0 33 18 64 39 69 49 107 59 140 37 13
-9 29 -16 36 -16 6 0 33 23 59 52 l48 52 37 -17 c51 -24 87 -21 168 14 71 31
72 32 116 15 41 -15 46 -15 79 1 20 10 45 30 55 45 25 34 23 37 -99 128 -110
83 -179 125 -253 155 -46 19 -51 24 -36 32 10 6 16 17 13 24 -7 17 -203 139
-283 175 -61 28 -192 42 -232 25z"/>
<path d="M4490 3914 c-85 -14 -225 -51 -313 -81 -80 -27 -132 -38 -238 -48
-78 -7 -149 -19 -166 -28 -31 -16 -53 -54 -53 -89 0 -58 91 -134 240 -201 53
-24 117 -58 143 -76 54 -37 70 -35 95 10 9 17 25 41 34 53 l18 21 32 -35 c32
-35 77 -70 91 -70 14 0 6 34 -18 76 l-25 43 27 -14 c38 -20 50 -5 37 45 l-11
39 50 -44 c27 -25 55 -45 62 -45 15 0 25 22 25 56 0 20 5 24 31 24 16 0 50 -5
74 -11 58 -15 93 -5 108 29 6 15 28 50 49 77 73 99 89 189 44 242 l-24 28
-144 1 c-78 1 -154 0 -168 -2z"/>
<path d="M2256 3293 c-10 -33 -27 -416 -20 -458 9 -61 0 -83 -31 -77 -20 3
-25 0 -25 -15 0 -11 -13 -32 -30 -46 -34 -31 -37 -42 -13 -56 14 -7 15 -12 5
-23 -6 -8 -9 -18 -5 -21 3 -4 0 -7 -8 -7 -8 0 -4 -6 9 -16 12 -8 22 -22 22
-30 0 -18 86 -74 115 -74 11 0 37 9 57 20 24 12 47 18 65 14 23 -5 31 0 46 25
19 33 37 41 37 17 0 -23 -48 -74 -96 -102 -64 -38 -129 -35 -214 8 -86 44
-130 105 -130 182 0 66 19 97 49 79 12 -7 25 -13 29 -13 7 0 32 42 32 54 0 2
-36 4 -79 4 -101 1 -105 -4 -92 -95 19 -138 85 -234 192 -282 41 -19 52 -31
89 -108 17 -34 22 -75 30 -230 16 -288 28 -420 40 -444 23 -42 33 -2 38 156 4
121 1 179 -13 260 -16 91 -17 115 -5 197 17 128 20 134 70 141 52 7 63 3 75
-26 12 -27 43 -32 69 -12 19 14 19 19 7 107 -15 105 -36 184 -54 198 -7 5 -30
24 -51 42 -21 18 -60 44 -85 58 -34 19 -45 31 -43 45 9 56 3 134 -13 170 -12
28 -20 83 -25 186 -8 153 -27 227 -44 172z"/>
<path d="M3425 2674 l-41 -14 -2 -74 c-2 -73 -2 -74 34 -106 20 -17 52 -39 71
-48 32 -15 36 -15 68 2 44 24 63 67 47 109 -10 26 -9 34 5 49 18 20 11 34 -22
40 -11 2 -22 14 -25 28 -5 22 -12 25 -50 27 -25 1 -63 -5 -85 -13z"/>
<path d="M3760 2668 c0 -20 50 -42 64 -28 13 13 -1 26 -36 35 -21 5 -28 3 -28
-7z"/>
<path d="M3744 2592 c-39 -99 -48 -111 -100 -147 -103 -71 -176 -82 -251 -38
-50 29 -99 96 -109 150 -13 70 -44 25 -74 -108 -29 -127 -26 -143 24 -147 27
-2 45 2 60 16 20 18 24 18 100 4 138 -27 264 9 336 95 38 46 93 157 88 180 -2
9 -16 20 -31 24 -26 7 -30 5 -43 -29z"/>
<path d="M2679 1921 c-48 -48 -31 -106 40 -134 53 -22 71 -56 87 -164 16 -115
31 -143 80 -143 45 0 51 17 25 75 -19 43 -19 75 -1 75 5 0 13 15 20 34 6 18
35 66 65 106 77 101 85 146 30 162 -35 10 -96 2 -120 -16 -26 -19 -5 -50 46
-70 39 -16 40 -18 26 -39 -34 -53 -116 -59 -163 -12 -25 25 -24 45 3 76 18 21
7 46 -28 64 -43 23 -77 18 -110 -14z"/>
</g>
</svg>
